<svg width="31" height="31" viewBox="0 0 31 31" fill="none" xmlns="http://www.w3.org/2000/svg">
<path d="M27.8334 6.25004H21.6667V3.16671C21.6667 1.47087 20.2792 0.083374 18.5834 0.083374H12.4167C10.7209 0.083374 9.33337 1.47087 9.33337 3.16671V6.25004H3.16671C1.47087 6.25004 0.083374 7.63754 0.083374 9.33337V27.8334C0.083374 29.5292 1.47087 30.9167 3.16671 30.9167H27.8334C29.5292 30.9167 30.9167 29.5292 30.9167 27.8334V9.33337C30.9167 7.63754 29.5292 6.25004 27.8334 6.25004ZM12.4167 3.16671H18.5834V6.25004H12.4167V3.16671ZM27.8334 27.8334H3.16671V9.33337H27.8334V27.8334Z" fill="white"/>
<path d="M17.0417 12.4167H13.9584V17.0417H9.33337V20.1251H13.9584V24.7501H17.0417V20.1251H21.6667V17.0417H17.0417V12.4167Z" fill="white"/>
</svg>
