<svg width="14" height="14" viewBox="0 0 14 14" fill="none" xmlns="http://www.w3.org/2000/svg">
<path d="M14 14H13.0667V12.5C13.0667 12.1022 12.9192 11.7206 12.6566 11.4393C12.3941 11.158 12.038 11 11.6667 11H9.8C9.4287 11 9.0726 11.158 8.81005 11.4393C8.5475 11.7206 8.4 12.1022 8.4 12.5V14H7.46667V12.5C7.46667 11.837 7.7125 11.2011 8.15008 10.7322C8.58767 10.2634 9.18116 10 9.8 10H11.6667C12.2855 10 12.879 10.2634 13.3166 10.7322C13.7542 11.2011 14 11.837 14 12.5V14ZM10.7333 5C11.0102 5 11.2809 5.08797 11.5111 5.2528C11.7414 5.41762 11.9208 5.65189 12.0268 5.92597C12.1327 6.20006 12.1605 6.50166 12.1064 6.79264C12.0524 7.08361 11.9191 7.35088 11.7233 7.56066C11.5275 7.77044 11.278 7.9133 11.0065 7.97118C10.7349 8.02906 10.4534 7.99935 10.1976 7.88582C9.94176 7.77229 9.72311 7.58003 9.56928 7.33335C9.41544 7.08668 9.33333 6.79667 9.33333 6.5C9.33333 6.10218 9.48083 5.72064 9.74338 5.43934C10.0059 5.15804 10.362 5 10.7333 5ZM10.7333 4C10.2718 4 9.82072 4.14662 9.437 4.42133C9.05329 4.69603 8.75422 5.08648 8.57761 5.54329C8.40101 6.00011 8.3548 6.50277 8.44483 6.98773C8.53487 7.47268 8.7571 7.91814 9.08342 8.26777C9.40974 8.6174 9.8255 8.8555 10.2781 8.95196C10.7307 9.04843 11.1999 8.99892 11.6263 8.8097C12.0526 8.62048 12.417 8.30005 12.6734 7.88893C12.9298 7.4778 13.0667 6.99445 13.0667 6.5C13.0667 5.83696 12.8208 5.20107 12.3832 4.73223C11.9457 4.26339 11.3522 4 10.7333 4ZM6.53333 10H5.6V8.5C5.6 8.10218 5.4525 7.72064 5.18995 7.43934C4.9274 7.15804 4.5713 7 4.2 7H2.33333C1.96203 7 1.60593 7.15804 1.34338 7.43934C1.08083 7.72064 0.933333 8.10218 0.933333 8.5V10H0V8.5C0 7.83696 0.245833 7.20107 0.683417 6.73223C1.121 6.26339 1.71449 6 2.33333 6H4.2C4.81884 6 5.41233 6.26339 5.84992 6.73223C6.2875 7.20107 6.53333 7.83696 6.53333 8.5V10ZM3.26667 1C3.54356 1 3.81424 1.08797 4.04447 1.2528C4.27469 1.41762 4.45414 1.65189 4.5601 1.92597C4.66606 2.20006 4.69379 2.50166 4.63977 2.79264C4.58575 3.08361 4.45241 3.35088 4.25662 3.56066C4.06082 3.77044 3.81137 3.9133 3.53979 3.97118C3.26822 4.02906 2.98673 3.99935 2.73091 3.88582C2.47509 3.77229 2.25644 3.58003 2.10261 3.33336C1.94878 3.08668 1.86667 2.79667 1.86667 2.5C1.86667 2.10218 2.01417 1.72064 2.27672 1.43934C2.53927 1.15804 2.89536 1 3.26667 1ZM3.26667 0C2.80518 0 2.35405 0.146622 1.97034 0.421326C1.58662 0.696029 1.28755 1.08648 1.11095 1.54329C0.934343 2.00011 0.888135 2.50277 0.978168 2.98773C1.0682 3.47268 1.29043 3.91814 1.61675 4.26777C1.94307 4.6174 2.35883 4.8555 2.81146 4.95196C3.26408 5.04843 3.73323 4.99892 4.15959 4.8097C4.58596 4.62048 4.95037 4.30005 5.20676 3.88893C5.46315 3.4778 5.6 2.99445 5.6 2.5C5.6 1.83696 5.35417 1.20107 4.91658 0.732233C4.479 0.263392 3.88551 0 3.26667 0Z" fill="white"/>
</svg>
