<svg width="37" height="37" viewBox="0 0 37 37" fill="none" xmlns="http://www.w3.org/2000/svg">
<g clip-path="url(#clip0_310_2818)">
<path d="M16.1876 20.0417H12.3334V15.4167H16.1876V11.5625H20.8126V15.4167H24.6667V20.0417H20.8126V23.8959H16.1876V20.0417ZM18.5001 3.08337L6.16675 7.70837V17.0971C6.16675 24.8825 11.4238 32.1438 18.5001 33.9167C25.5763 32.1438 30.8334 24.8825 30.8334 17.0971V7.70837L18.5001 3.08337ZM27.7501 17.0971C27.7501 23.2638 23.8188 28.968 18.5001 30.71C13.1813 28.968 9.25008 23.2792 9.25008 17.0971V9.85129L18.5001 6.38254L27.7501 9.85129V17.0971Z" fill="white"/>
</g>
<defs>
<clipPath id="clip0_310_2818">
<path d="M0 10C0 4.47715 4.47715 0 10 0H27C32.5228 0 37 4.47715 37 10V27C37 32.5228 32.5228 37 27 37H10C4.47715 37 0 32.5228 0 27V10Z" fill="white"/>
</clipPath>
</defs>
</svg>
