<svg width="35" height="25" viewBox="0 0 35 25" fill="none" xmlns="http://www.w3.org/2000/svg">
<path d="M28.2916 15.5833V3.24996C28.2916 1.55413 26.9041 0.166626 25.2083 0.166626H3.62496C1.92913 0.166626 0.541626 1.55413 0.541626 3.24996V15.5833C0.541626 17.2791 1.92913 18.6666 3.62496 18.6666H25.2083C26.9041 18.6666 28.2916 17.2791 28.2916 15.5833ZM25.2083 15.5833H3.62496V3.24996H25.2083V15.5833ZM14.4166 4.79163C11.8575 4.79163 9.79163 6.85746 9.79163 9.41663C9.79163 11.9758 11.8575 14.0416 14.4166 14.0416C16.9758 14.0416 19.0416 11.9758 19.0416 9.41663C19.0416 6.85746 16.9758 4.79163 14.4166 4.79163ZM34.4583 4.79163V21.75C34.4583 23.4458 33.0708 24.8333 31.375 24.8333H5.16663C5.16663 23.2916 5.16663 23.4458 5.16663 21.75H31.375V4.79163C33.0708 4.79163 32.9166 4.79163 34.4583 4.79163Z" fill="white"/>
</svg>
