<svg width="14" height="14" viewBox="0 0 14 14" fill="none" xmlns="http://www.w3.org/2000/svg">
<path d="M9.34834 8.03461L9.49776 8.12576L9.67141 8.10382C10.2096 8.03582 10.9937 7.95415 11.7282 7.97783C12.0955 7.98967 12.4336 8.02748 12.714 8.0992C12.9989 8.17208 13.1817 8.26927 13.284 8.36909C13.4575 8.54402 13.5679 8.94554 13.4541 9.326C13.4015 9.50173 13.3069 9.64773 13.1733 9.75022C13.0426 9.85057 12.8443 9.9325 12.5417 9.9325C11.7294 9.9325 10.431 9.54567 9.28951 8.93002L9.13886 8.84877L8.97002 8.87689C7.82287 9.06795 6.55384 9.49782 5.37983 9.8955C5.12047 9.98335 4.86573 10.0696 4.61798 10.1514L4.4376 10.211L4.34226 10.3753C3.57478 11.698 2.90695 12.5031 2.35827 12.9652C1.80957 13.4274 1.41863 13.5161 1.18173 13.4977C0.951316 13.4798 0.770938 13.3533 0.646727 13.1684C0.511584 12.9673 0.487302 12.7639 0.505207 12.6783L0.506042 12.6742C0.595539 12.227 0.963327 11.7604 1.54651 11.2964C2.11632 10.843 2.81517 10.4518 3.43389 10.1334L3.56574 10.0655L3.63928 9.93676C4.31067 8.76101 5.25154 6.7335 5.88005 5.23236L5.9451 5.077L5.90289 4.91394C5.673 4.02605 5.50142 3.2546 5.41951 2.58861C5.33725 1.91973 5.35021 1.39165 5.46339 0.977804L5.46364 0.976858C5.53291 0.721615 5.85945 0.481685 6.30556 0.500991C6.50974 0.509828 6.69771 0.576756 6.84123 0.695696C6.97952 0.81029 7.10349 0.994994 7.15143 1.29382L7.15687 1.32777L7.16692 1.36066C7.28027 1.73182 7.27147 2.26363 7.18307 2.87669C7.1012 3.44441 6.96143 4.0201 6.8421 4.51161C6.83515 4.5402 6.82828 4.5685 6.8215 4.5965L6.78497 4.7472L6.84011 4.89212C7.3805 6.31218 8.16543 7.31296 9.34834 8.03461Z" stroke="#333333"/>
</svg>
