<svg width="20" height="20" viewBox="0 0 20 20" fill="none" xmlns="http://www.w3.org/2000/svg">
<g clip-path="url(#clip0_310_2807)">
<path d="M10.725 12.5583L8.60837 10.4666L8.63337 10.4416C10.0834 8.82496 11.1167 6.96663 11.725 4.99996H14.1667V3.33329H8.33337V1.66663H6.66671V3.33329H0.833374V4.99163H10.1417C9.58337 6.59996 8.70004 8.12496 7.50004 9.45829C6.72504 8.59996 6.08337 7.65829 5.57504 6.66663H3.90837C4.51671 8.02496 5.35004 9.30829 6.39171 10.4666L2.15004 14.65L3.33337 15.8333L7.50004 11.6666L10.0917 14.2583L10.725 12.5583ZM15.4167 8.33329H13.75L10 18.3333H11.6667L12.6 15.8333H16.5584L17.5 18.3333H19.1667L15.4167 8.33329ZM13.2334 14.1666L14.5834 10.5583L15.9334 14.1666H13.2334Z" fill="#1D242E"/>
</g>
<defs>
<clipPath id="clip0_310_2807">
<rect width="20" height="20" fill="white"/>
</clipPath>
</defs>
</svg>
